<svg data-v-423bf9ae="" xmlns="http://www.w3.org/2000/svg" viewBox="0 0 420.29042291255644 60" class="font"><!----><!----><!----><g data-v-423bf9ae="" id="94152045-edca-452b-a4fc-49d0ee7fde21" fill="black" transform="matrix(5.808325309113267,0,0,5.808325309113267,-3.310738647397386,-20.56147137269094)"><path d="M7.03 13.40Q6.43 13.62 5.86 13.73Q5.29 13.85 4.54 13.85L4.54 13.85Q2.52 13.85 1.55 12.61Q0.57 11.37 0.57 9.39L0.57 9.39Q0.57 7.41 1.54 6.17Q2.51 4.94 4.54 4.94L4.54 4.94Q5.32 4.94 5.85 5.05Q6.38 5.15 7.03 5.36L7.03 5.36L6.90 7.14L6.40 7.14L6.05 5.78Q5.31 5.63 4.76 5.63L4.76 5.63Q1.83 5.63 1.83 9.39L1.83 9.39Q1.83 10.98 2.51 12.08Q3.19 13.17 4.72 13.17L4.72 13.17Q5.38 13.17 6.05 12.96L6.05 12.96L6.40 11.79L6.92 11.79L7.03 13.40ZM11.65 13.72L7.97 13.72L7.97 13.26L9.23 12.98L9.23 4.54L7.97 4.40L7.97 4.07L10.01 3.54L10.39 3.54L10.39 12.98L11.65 13.26L11.65 13.72ZM15.57 13.87Q14 13.87 13.21 12.97Q12.42 12.07 12.42 10.32L12.42 10.32Q12.42 8.57 13.19 7.64Q13.96 6.72 15.41 6.72L15.41 6.72Q16.76 6.72 17.40 7.36Q18.05 7.99 18.05 9.35L18.05 9.35Q18.05 9.52 18.02 10.05L18.02 10.05L13.71 10.05L13.71 10.50Q13.71 11.73 14.25 12.43Q14.80 13.13 15.76 13.13L15.76 13.13Q16.23 13.13 16.79 13.05Q17.35 12.96 17.86 12.82L17.86 12.82L17.95 13.26Q17.35 13.59 16.81 13.73Q16.28 13.87 15.57 13.87L15.57 13.87ZM13.73 9.56L16.79 9.42L16.79 9.10Q16.79 8.23 16.48 7.82Q16.17 7.41 15.50 7.41L15.50 7.41Q14.60 7.41 14.20 7.90Q13.79 8.40 13.73 9.56L13.73 9.56ZM21.71 7.48Q21 7.48 20.33 7.67L20.33 7.67L19.99 8.88L19.57 8.88L19.33 7.24Q20.72 6.72 21.97 6.72L21.97 6.72Q23.00 6.72 23.55 7.07Q24.09 7.42 24.09 8.25L24.09 8.25L24.09 12.91L25.35 13.16L25.35 13.55Q24.63 13.78 23.88 13.78L23.88 13.78Q23.53 13.78 23.28 13.58Q23.03 13.38 22.96 13.01L22.96 13.01Q21.77 13.87 20.54 13.87L20.54 13.87Q19.84 13.87 19.44 13.36Q19.04 12.84 19.04 12.15L19.04 12.15Q19.04 10.53 20.82 10.21L20.82 10.21L22.93 9.83L22.93 8.65Q22.93 8.06 22.67 7.77Q22.40 7.48 21.71 7.48L21.71 7.48ZM21.48 10.68Q20.82 10.79 20.54 11.13Q20.26 11.47 20.26 11.94L20.26 11.94Q20.26 13.01 21.28 13.01L21.28 13.01Q21.64 13.01 22.09 12.85Q22.53 12.70 22.93 12.49L22.93 12.49L22.93 10.44L21.48 10.68ZM28.45 7.28Q28.94 7.07 29.63 6.90Q30.32 6.72 30.95 6.72L30.95 6.72Q31.78 6.72 32.30 7.08Q32.82 7.45 32.82 8.25L32.82 8.25L32.82 12.98L34.08 13.33L34.08 13.72L30.51 13.72L30.51 13.33L31.65 12.98L31.65 8.48Q31.65 8.11 31.54 7.91Q31.42 7.71 31.12 7.64Q30.83 7.56 30.25 7.56L30.25 7.56Q29.81 7.56 29.32 7.62Q28.83 7.69 28.45 7.78L28.45 7.78L28.45 12.98L29.60 13.33L29.60 13.72L26.04 13.72L26.04 13.33L27.29 12.98L27.29 7.70L26.04 7.56L26.04 7.24L28.07 6.72L28.45 6.72L28.45 7.28ZM39.05 13.69L38.16 13.86L35.42 5.91L34.41 5.63L34.41 5.17L37.45 5.17L37.45 5.63L36.62 5.91L38.71 11.96L38.79 12.31L38.88 11.96L40.82 5.91L39.82 5.63L39.82 5.17L42.67 5.17L42.67 5.63L41.66 5.91L39.05 13.69ZM44.45 5.60Q44.11 5.60 43.86 5.37Q43.61 5.14 43.61 4.80L43.61 4.80Q43.61 4.45 43.86 4.21Q44.11 3.96 44.45 3.96L44.45 3.96Q44.79 3.96 45.04 4.21Q45.29 4.47 45.29 4.80L45.29 4.80Q45.29 5.14 45.04 5.37Q44.79 5.60 44.45 5.60L44.45 5.60ZM46.28 13.72L42.63 13.72L42.63 13.27L43.88 12.98L43.88 7.70L42.63 7.56L42.63 7.24L44.69 6.72L45.04 6.72L45.04 12.98L46.28 13.27L46.28 13.72ZM49.66 7.43Q48.99 7.43 48.62 7.69Q48.26 7.95 48.26 8.43L48.26 8.43Q48.26 8.88 48.47 9.10Q48.69 9.32 49.27 9.53L49.27 9.53L50.27 9.90Q51.17 10.21 51.50 10.62Q51.83 11.03 51.83 11.73L51.83 11.73Q51.83 12.73 51.16 13.29Q50.50 13.86 49.24 13.86L49.24 13.86Q48.75 13.86 48.18 13.76Q47.61 13.66 47.17 13.50L47.17 13.50L47.36 11.87L47.80 11.87L48.09 13.02Q48.68 13.19 49.31 13.19L49.31 13.19Q50.01 13.19 50.39 12.88Q50.78 12.57 50.78 11.94L50.78 11.94Q50.78 11.58 50.52 11.33Q50.26 11.09 49.60 10.85L49.60 10.85L48.72 10.54Q47.96 10.26 47.62 9.83Q47.28 9.39 47.28 8.69L47.28 8.69Q47.28 7.76 47.89 7.24Q48.50 6.72 49.70 6.72L49.70 6.72Q50.60 6.72 51.58 7.17L51.58 7.17L51.35 8.67L50.93 8.67L50.64 7.64Q50.46 7.56 50.17 7.50Q49.88 7.43 49.66 7.43L49.66 7.43ZM54.68 5.60Q54.35 5.60 54.10 5.37Q53.84 5.14 53.84 4.80L53.84 4.80Q53.84 4.45 54.10 4.21Q54.35 3.96 54.68 3.96L54.68 3.96Q55.02 3.96 55.27 4.21Q55.52 4.47 55.52 4.80L55.52 4.80Q55.52 5.14 55.27 5.37Q55.02 5.60 54.68 5.60L54.68 5.60ZM56.52 13.72L52.86 13.72L52.86 13.27L54.11 12.98L54.11 7.70L52.86 7.56L52.86 7.24L54.92 6.72L55.27 6.72L55.27 12.98L56.52 13.27L56.52 13.72ZM60.63 6.72Q62.31 6.72 63.10 7.71Q63.88 8.69 63.88 10.32L63.88 10.32Q63.88 11.90 63.08 12.88Q62.29 13.86 60.63 13.86L60.63 13.86Q58.98 13.86 58.18 12.87Q57.37 11.89 57.37 10.32L57.37 10.32Q57.37 8.71 58.17 7.71Q58.97 6.72 60.63 6.72L60.63 6.72ZM62.59 10.28Q62.59 8.90 62.15 8.14Q61.71 7.38 60.59 7.38L60.59 7.38Q59.53 7.38 59.09 8.15Q58.66 8.92 58.66 10.28L58.66 10.28Q58.66 11.66 59.11 12.43Q59.56 13.19 60.68 13.19L60.68 13.19Q61.77 13.19 62.18 12.43Q62.59 11.68 62.59 10.28L62.59 10.28ZM67.30 7.28Q67.79 7.07 68.48 6.90Q69.17 6.72 69.80 6.72L69.80 6.72Q70.63 6.72 71.15 7.08Q71.67 7.45 71.67 8.25L71.67 8.25L71.67 12.98L72.93 13.33L72.93 13.72L69.36 13.72L69.36 13.33L70.50 12.98L70.50 8.48Q70.50 8.11 70.38 7.91Q70.27 7.71 69.97 7.64Q69.68 7.56 69.10 7.56L69.10 7.56Q68.66 7.56 68.17 7.62Q67.68 7.69 67.30 7.78L67.30 7.78L67.30 12.98L68.45 13.33L68.45 13.72L64.89 13.72L64.89 13.33L66.14 12.98L66.14 7.70L64.89 7.56L64.89 7.24L66.92 6.72L67.30 6.72L67.30 7.28Z"></path></g><!----><!----></svg>