<svg class="iconLeftSlogan" viewBox="36.6 119.4 230.4 63" xmlns="http://www.w3.org/2000/svg" data-v-fde0c5aa="" style="max-height: 500px" width="230.4" height="63"><defs data-v-fde0c5aa=""/><rect class="logo-background-square" height="300px" width="300px" y="0" x="0" fill="none" data-v-fde0c5aa=""/><defs data-v-fde0c5aa=""/><g transform="matrix(2.161146520774504,0,0,2.161146520774504,102.38758293631398,121.18721970154033)" fill="#012B3D" id="89949a33-fe88-4729-a6a7-47c3aba27f89" data-v-fde0c5aa=""><path d="M7.03 13.40Q6.43 13.62 5.86 13.73Q5.29 13.85 4.54 13.85L4.54 13.85Q2.52 13.85 1.55 12.61Q0.57 11.37 0.57 9.39L0.57 9.39Q0.57 7.41 1.54 6.17Q2.51 4.94 4.54 4.94L4.54 4.94Q5.32 4.94 5.85 5.05Q6.38 5.15 7.03 5.36L7.03 5.36L6.90 7.14L6.40 7.14L6.05 5.78Q5.31 5.63 4.76 5.63L4.76 5.63Q1.83 5.63 1.83 9.39L1.83 9.39Q1.83 10.98 2.51 12.08Q3.19 13.17 4.72 13.17L4.72 13.17Q5.38 13.17 6.05 12.96L6.05 12.96L6.40 11.79L6.92 11.79L7.03 13.40ZM11.65 13.72L7.97 13.72L7.97 13.26L9.23 12.98L9.23 4.54L7.97 4.40L7.97 4.07L10.01 3.54L10.39 3.54L10.39 12.98L11.65 13.26L11.65 13.72ZM15.57 13.87Q14 13.87 13.21 12.97Q12.42 12.07 12.42 10.32L12.42 10.32Q12.42 8.57 13.19 7.64Q13.96 6.72 15.41 6.72L15.41 6.72Q16.76 6.72 17.40 7.36Q18.05 7.99 18.05 9.35L18.05 9.35Q18.05 9.52 18.02 10.05L18.02 10.05L13.71 10.05L13.71 10.50Q13.71 11.73 14.25 12.43Q14.80 13.13 15.76 13.13L15.76 13.13Q16.23 13.13 16.79 13.05Q17.35 12.96 17.86 12.82L17.86 12.82L17.95 13.26Q17.35 13.59 16.81 13.73Q16.28 13.87 15.57 13.87L15.57 13.87ZM13.73 9.56L16.79 9.42L16.79 9.10Q16.79 8.23 16.48 7.82Q16.17 7.41 15.50 7.41L15.50 7.41Q14.60 7.41 14.20 7.90Q13.79 8.40 13.73 9.56L13.73 9.56ZM21.71 7.48Q21 7.48 20.33 7.67L20.33 7.67L19.99 8.88L19.57 8.88L19.33 7.24Q20.72 6.72 21.97 6.72L21.97 6.72Q23.00 6.72 23.55 7.07Q24.09 7.42 24.09 8.25L24.09 8.25L24.09 12.91L25.35 13.16L25.35 13.55Q24.63 13.78 23.88 13.78L23.88 13.78Q23.53 13.78 23.28 13.58Q23.03 13.38 22.96 13.01L22.96 13.01Q21.77 13.87 20.54 13.87L20.54 13.87Q19.84 13.87 19.44 13.36Q19.04 12.84 19.04 12.15L19.04 12.15Q19.04 10.53 20.82 10.21L20.82 10.21L22.93 9.83L22.93 8.65Q22.93 8.06 22.67 7.77Q22.40 7.48 21.71 7.48L21.71 7.48ZM21.48 10.68Q20.82 10.79 20.54 11.13Q20.26 11.47 20.26 11.94L20.26 11.94Q20.26 13.01 21.28 13.01L21.28 13.01Q21.64 13.01 22.09 12.85Q22.53 12.70 22.93 12.49L22.93 12.49L22.93 10.44L21.48 10.68ZM28.45 7.28Q28.94 7.07 29.63 6.90Q30.32 6.72 30.95 6.72L30.95 6.72Q31.78 6.72 32.30 7.08Q32.82 7.45 32.82 8.25L32.82 8.25L32.82 12.98L34.08 13.33L34.08 13.72L30.51 13.72L30.51 13.33L31.65 12.98L31.65 8.48Q31.65 8.11 31.54 7.91Q31.42 7.71 31.12 7.64Q30.83 7.56 30.25 7.56L30.25 7.56Q29.81 7.56 29.32 7.62Q28.83 7.69 28.45 7.78L28.45 7.78L28.45 12.98L29.60 13.33L29.60 13.72L26.04 13.72L26.04 13.33L27.29 12.98L27.29 7.70L26.04 7.56L26.04 7.24L28.07 6.72L28.45 6.72L28.45 7.28ZM39.05 13.69L38.16 13.86L35.42 5.91L34.41 5.63L34.41 5.17L37.45 5.17L37.45 5.63L36.62 5.91L38.71 11.96L38.79 12.31L38.88 11.96L40.82 5.91L39.82 5.63L39.82 5.17L42.67 5.17L42.67 5.63L41.66 5.91L39.05 13.69ZM44.45 5.60Q44.11 5.60 43.86 5.37Q43.61 5.14 43.61 4.80L43.61 4.80Q43.61 4.45 43.86 4.21Q44.11 3.96 44.45 3.96L44.45 3.96Q44.79 3.96 45.04 4.21Q45.29 4.47 45.29 4.80L45.29 4.80Q45.29 5.14 45.04 5.37Q44.79 5.60 44.45 5.60L44.45 5.60ZM46.28 13.72L42.63 13.72L42.63 13.27L43.88 12.98L43.88 7.70L42.63 7.56L42.63 7.24L44.69 6.72L45.04 6.72L45.04 12.98L46.28 13.27L46.28 13.72ZM49.66 7.43Q48.99 7.43 48.62 7.69Q48.26 7.95 48.26 8.43L48.26 8.43Q48.26 8.88 48.47 9.10Q48.69 9.32 49.27 9.53L49.27 9.53L50.27 9.90Q51.17 10.21 51.50 10.62Q51.83 11.03 51.83 11.73L51.83 11.73Q51.83 12.73 51.16 13.29Q50.50 13.86 49.24 13.86L49.24 13.86Q48.75 13.86 48.18 13.76Q47.61 13.66 47.17 13.50L47.17 13.50L47.36 11.87L47.80 11.87L48.09 13.02Q48.68 13.19 49.31 13.19L49.31 13.19Q50.01 13.19 50.39 12.88Q50.78 12.57 50.78 11.94L50.78 11.94Q50.78 11.58 50.52 11.33Q50.26 11.09 49.60 10.85L49.60 10.85L48.72 10.54Q47.96 10.26 47.62 9.83Q47.28 9.39 47.28 8.69L47.28 8.69Q47.28 7.76 47.89 7.24Q48.50 6.72 49.70 6.72L49.70 6.72Q50.60 6.72 51.58 7.17L51.58 7.17L51.35 8.67L50.93 8.67L50.64 7.64Q50.46 7.56 50.17 7.50Q49.88 7.43 49.66 7.43L49.66 7.43ZM54.68 5.60Q54.35 5.60 54.10 5.37Q53.84 5.14 53.84 4.80L53.84 4.80Q53.84 4.45 54.10 4.21Q54.35 3.96 54.68 3.96L54.68 3.96Q55.02 3.96 55.27 4.21Q55.52 4.47 55.52 4.80L55.52 4.80Q55.52 5.14 55.27 5.37Q55.02 5.60 54.68 5.60L54.68 5.60ZM56.52 13.72L52.86 13.72L52.86 13.27L54.11 12.98L54.11 7.70L52.86 7.56L52.86 7.24L54.92 6.72L55.27 6.72L55.27 12.98L56.52 13.27L56.52 13.72ZM60.63 6.72Q62.31 6.72 63.10 7.71Q63.88 8.69 63.88 10.32L63.88 10.32Q63.88 11.90 63.08 12.88Q62.29 13.86 60.63 13.86L60.63 13.86Q58.98 13.86 58.18 12.87Q57.37 11.89 57.37 10.32L57.37 10.32Q57.37 8.71 58.17 7.71Q58.97 6.72 60.63 6.72L60.63 6.72ZM62.59 10.28Q62.59 8.90 62.15 8.14Q61.71 7.38 60.59 7.38L60.59 7.38Q59.53 7.38 59.09 8.15Q58.66 8.92 58.66 10.28L58.66 10.28Q58.66 11.66 59.11 12.43Q59.56 13.19 60.68 13.19L60.68 13.19Q61.77 13.19 62.18 12.43Q62.59 11.68 62.59 10.28L62.59 10.28ZM67.30 7.28Q67.79 7.07 68.48 6.90Q69.17 6.72 69.80 6.72L69.80 6.72Q70.63 6.72 71.15 7.08Q71.67 7.45 71.67 8.25L71.67 8.25L71.67 12.98L72.93 13.33L72.93 13.72L69.36 13.72L69.36 13.33L70.50 12.98L70.50 8.48Q70.50 8.11 70.38 7.91Q70.27 7.71 69.97 7.64Q69.68 7.56 69.10 7.56L69.10 7.56Q68.66 7.56 68.17 7.62Q67.68 7.69 67.30 7.78L67.30 7.78L67.30 12.98L68.45 13.33L68.45 13.72L64.89 13.72L64.89 13.33L66.14 12.98L66.14 7.70L64.89 7.56L64.89 7.24L66.92 6.72L67.30 6.72L67.30 7.28Z"/></g><defs data-v-fde0c5aa=""><linearGradient y2="0%" x2="100%" y1="0%" x1="0%" id="48a7c1c8-2dc3-43a7-be2d-19bc5cbf14dc" gradientTransform="rotate(25)" data-v-fde0c5aa=""><stop stop-opacity="1" stop-color="#0076DD" offset="0%" data-v-fde0c5aa=""/><stop stop-opacity="1" stop-color="#00CDE9" offset="100%" data-v-fde0c5aa=""/></linearGradient></defs><g transform="matrix(0.7909286943390268,0,0,0.7909286943390268,25.76328350189752,110.45356528304866)" fill="url(#48a7c1c8-2dc3-43a7-be2d-19bc5cbf14dc)" stroke="none" id="760103f7-381d-432c-94e1-57f051a2e4b1" data-v-fde0c5aa=""><switch><g><path d="M62.595 18c4.678 5.729 7.49 12.897 7.49 20.702 0 18.714-16.004 33.885-35.745 33.885A37.127 37.127 0 0118 68.816C24.538 76.824 34.747 82 46.255 82 65.996 82 82 66.829 82 48.115 82 34.987 74.11 23.627 62.595 18z"/></g></switch></g><defs data-v-fde0c5aa=""/><g transform="matrix(0.6643466755927919,0,0,0.6643466755927919,103.38691508540097,159.34201179989915)" fill="#012B3D" id="747f9452-6201-4653-8c1f-5e4171aab05d" data-v-fde0c5aa=""><path d="M0.35 10.04L0.35 10.04L0.84 9.98L1.03 10.85Q1.13 11.33 1.20 11.41Q1.27 11.49 1.68 11.64L1.68 11.64Q2.52 11.95 3.42 11.95L3.42 11.95Q4.20 11.95 4.74 11.49L4.74 11.49Q5.28 11.04 5.28 10.26L5.28 10.26Q5.28 9.65 4.82 9.21L4.82 9.21Q4.34 8.76 3.49 8.30L3.49 8.30L2.91 7.98Q2.17 7.55 1.93 7.36L1.93 7.36Q1.57 7.08 1.26 6.59Q0.95 6.10 0.95 5.46L0.95 5.46Q0.95 4.39 1.79 3.68Q2.63 2.97 3.74 2.97L3.74 2.97Q4.02 2.97 4.37 3.04L4.37 3.04Q4.57 3.08 4.90 3.17L4.90 3.17L5.14 3.25Q5.24 3.25 5.28 3.16L5.28 3.16Q5.33 3.05 5.33 2.98L5.33 2.98L5.35 2.88L5.82 2.85L6.04 5.41L5.53 5.43L5.41 4.18Q4.66 3.62 3.50 3.62L3.50 3.62Q2.86 3.62 2.35 4.05L2.35 4.05Q1.87 4.47 1.87 5.12L1.87 5.12Q1.87 5.72 2.32 6.17L2.32 6.17Q2.75 6.60 3.62 7.08L3.62 7.08L4.40 7.50Q5.35 8.03 5.88 8.59Q6.41 9.15 6.41 9.92L6.41 9.92Q6.41 10.99 5.56 11.76L5.56 11.76Q4.69 12.54 3.23 12.54L3.23 12.54Q2.67 12.54 2.17 12.41Q1.67 12.29 1.61 12.29L1.61 12.29Q1.36 12.29 1.36 12.58L1.36 12.58L1.37 12.76L0.90 12.80Q0.83 12.41 0.35 10.04ZM14.96 3.64L14.59 3.64L14.59 3.08L18.08 3.08L18.08 3.64L17.72 3.64Q17.21 3.64 17.06 3.75L17.06 3.75Q16.93 3.84 16.92 4.25L16.92 4.25L16.92 6.91L21.47 6.91L21.47 4.14Q21.47 3.77 21.38 3.71L21.38 3.71Q21.27 3.64 20.74 3.64L20.74 3.64L20.15 3.64L20.14 3.08L23.69 3.08L23.69 3.64L23.30 3.64Q22.83 3.64 22.72 3.74Q22.61 3.83 22.61 4.22L22.61 4.22L22.61 11.29Q22.61 11.67 22.74 11.77L22.74 11.77Q22.90 11.87 23.45 11.87L23.45 11.87L23.92 11.87L23.91 12.41L20.42 12.41L20.41 11.87L20.82 11.87Q21.28 11.87 21.38 11.77Q21.47 11.67 21.47 11.25L21.47 11.25L21.47 7.58L16.92 7.58L16.92 11.25Q16.92 11.67 17.07 11.77Q17.23 11.87 17.93 11.87L17.93 11.87L18.33 11.87L18.31 12.41L14.72 12.41L14.71 11.87L15.07 11.87Q15.62 11.87 15.69 11.80L15.69 11.80Q15.78 11.70 15.78 11.25L15.78 11.25L15.78 4.09Q15.78 3.76 15.65 3.71L15.65 3.71Q15.48 3.64 14.96 3.64L14.96 3.64ZM32.25 3.64L31.66 3.64L31.67 3.08L35.18 3.08L35.18 3.64L34.95 3.64Q34.41 3.64 34.23 3.73L34.23 3.73Q34.10 3.81 34.10 4.28L34.10 4.28L34.10 11.22Q34.10 11.68 34.21 11.77Q34.32 11.87 34.85 11.87L34.85 11.87L35.40 11.87L35.41 12.41L31.83 12.41L31.81 11.87L32.18 11.87Q32.74 11.87 32.85 11.77Q32.96 11.67 32.96 11.25L32.96 11.25L32.96 4.14Q32.96 3.77 32.86 3.71L32.86 3.71Q32.75 3.64 32.25 3.64L32.25 3.64ZM43.16 3.64L43.15 3.08L45.32 3.08L51.06 10.48L51.06 4.14Q51.06 3.81 50.90 3.72Q50.75 3.64 50.29 3.64L50.29 3.64L49.80 3.64L49.83 3.08L52.81 3.08L52.81 3.64L52.49 3.64Q52.02 3.64 51.87 3.75Q51.72 3.86 51.72 4.25L51.72 4.25L51.72 12.32L51.72 12.47Q51.72 12.52 51.71 12.57Q51.69 12.61 51.66 12.64L51.66 12.64Q51.65 12.65 51.59 12.65L51.59 12.65L51.40 12.65L51.34 12.65L51.31 12.65L51.28 12.64Q51.26 12.64 51.24 12.63Q51.23 12.61 51.23 12.60Q51.23 12.58 51.21 12.57L51.21 12.57Q51.19 12.54 51.16 12.50L51.16 12.50Q51.15 12.48 51.13 12.45Q51.11 12.41 51.09 12.40L51.09 12.40L44.99 4.56L45.06 11.22Q45.06 11.67 45.22 11.77L45.22 11.77Q45.38 11.87 46.09 11.87L46.09 11.87L46.33 11.87L46.33 12.41L43.39 12.41L43.39 11.87L43.81 11.87Q44.19 11.87 44.30 11.76L44.30 11.76Q44.39 11.66 44.40 11.25L44.40 11.25L44.40 3.80L44.26 3.64L43.16 3.64ZM60.56 3.64L60.55 3.08L67.76 3.08Q67.77 4.14 67.83 5.28L67.83 5.28L67.28 5.30Q67.27 4.66 67.21 4.25L67.21 4.25Q67.17 3.89 67.12 3.80L67.12 3.80Q67.06 3.71 66.94 3.69L66.94 3.69Q66.85 3.68 66.26 3.68L66.26 3.68L63.88 3.68Q63.33 3.68 63.19 3.77L63.19 3.77Q63.07 3.86 63.07 4.33L63.07 4.33L63.07 6.28Q63.07 6.69 63.12 6.76L63.12 6.76Q63.19 6.84 63.53 6.84L63.53 6.84L65.65 6.84Q66.01 6.84 66.09 6.73L66.09 6.73Q66.17 6.63 66.18 6.14L66.18 6.14L66.18 5.61L66.69 5.63L66.69 8.97L66.18 8.97L66.18 8.24Q66.18 7.66 66.10 7.57L66.10 7.57Q66.02 7.46 65.67 7.46L65.67 7.46L63.57 7.46Q63.24 7.46 63.15 7.54Q63.07 7.63 63.07 7.89L63.07 7.89L63.07 11.20Q63.07 11.57 63.15 11.67Q63.24 11.77 63.51 11.77L63.51 11.77Q66.43 11.75 66.96 11.69L66.96 11.69Q67.48 11.63 67.56 11.38L67.56 11.38L67.57 11.36L67.57 11.35L67.80 10.17L68.28 10.25L67.93 12.41L60.83 12.41L60.83 11.87L61.20 11.87Q61.76 11.87 61.84 11.80L61.84 11.80Q61.93 11.72 61.93 11.33L61.93 11.33L61.93 4.24Q61.93 3.82 61.78 3.73L61.78 3.73Q61.61 3.64 60.96 3.64L60.96 3.64L60.56 3.64ZM85.87 3.64L85.87 3.64L85.88 3.08L89.02 3.08L89.02 3.64L88.74 3.64Q88.29 3.64 88.18 3.66L88.18 3.66Q88.01 3.71 88.01 3.82L88.01 3.82Q88.01 3.89 88.26 4.31L88.26 4.31L90.26 7.46L92.71 3.99Q92.79 3.83 92.80 3.82L92.80 3.82Q92.80 3.64 91.88 3.64L91.88 3.64L91.66 3.64L91.65 3.08L94.19 3.08L94.19 3.64L94.12 3.64Q93.78 3.64 93.63 3.72L93.63 3.72Q93.47 3.80 93.19 4.22L93.19 4.22L90.46 8.17L90.46 11.22Q90.46 11.66 90.57 11.77L90.57 11.77Q90.67 11.87 91.28 11.87L91.28 11.87L91.92 11.87L91.90 12.41L87.96 12.41L87.98 11.87L88.54 11.87Q89.07 11.87 89.20 11.79Q89.33 11.70 89.33 11.25L89.33 11.25L89.33 8.06L87.03 4.49Q86.61 3.84 86.48 3.73L86.48 3.73Q86.37 3.64 85.87 3.64ZM102.31 7.83L102.31 7.83Q102.31 6.62 102.72 5.68L102.72 5.68Q103.13 4.72 103.82 4.12L103.82 4.12Q104.51 3.51 105.38 3.19L105.38 3.19Q106.22 2.88 107.17 2.88L107.17 2.88Q108.42 2.88 109.48 3.40L109.48 3.40Q110.56 3.93 111.27 5.07L111.27 5.07Q111.97 6.17 111.97 7.75L111.97 7.75Q111.97 8.70 111.67 9.54Q111.36 10.38 110.75 11.10Q110.15 11.81 109.21 12.22L109.21 12.22Q108.25 12.63 107.06 12.64L107.06 12.64Q105.92 12.64 104.99 12.23Q104.05 11.83 103.49 11.14L103.49 11.14Q102.92 10.45 102.62 9.60L102.62 9.60Q102.31 8.72 102.31 7.83ZM103.57 7.38L103.57 7.38Q103.57 8.52 104.00 9.60L104.00 9.60Q104.41 10.64 105.33 11.33L105.33 11.33Q106.24 12.03 107.43 12.04L107.43 12.04Q108.81 12.04 109.74 11.01L109.74 11.01Q110.69 9.97 110.69 8.10L110.69 8.10Q110.69 5.99 109.53 4.72L109.53 4.72Q108.38 3.46 106.87 3.45L106.87 3.45Q106.35 3.45 105.81 3.65Q105.27 3.85 104.76 4.25L104.76 4.25Q104.21 4.68 103.89 5.48L103.89 5.48Q103.57 6.27 103.57 7.38ZM120.47 3.64L120.09 3.64L120.09 3.08L123.45 3.08L123.46 3.64L122.93 3.64Q122.50 3.64 122.34 3.73L122.34 3.73Q122.17 3.83 122.17 4.16L122.17 4.16L122.17 9.33Q122.17 9.63 122.21 9.78L122.21 9.78Q122.25 10.01 122.41 10.41L122.41 10.41Q122.58 10.80 122.88 11.09L122.88 11.09Q123.18 11.40 123.74 11.63L123.74 11.63Q124.32 11.85 125.10 11.85L125.10 11.85Q125.95 11.85 126.50 11.67L126.50 11.67Q127.06 11.48 127.37 11.22Q127.67 10.96 127.82 10.49L127.82 10.49Q127.99 9.95 128.00 9.66L128.00 9.66Q128.02 9.18 128.03 8.67L128.03 8.67L128.03 4.14Q128.03 3.81 127.89 3.72L127.89 3.72Q127.74 3.64 127.26 3.64L127.26 3.64L126.77 3.64L126.79 3.08L129.42 3.08L129.42 3.64L129.23 3.64Q128.91 3.64 128.80 3.75Q128.69 3.86 128.69 4.25L128.69 4.25L128.69 9.22Q128.69 12.67 125.10 12.67L125.10 12.67Q122.93 12.67 121.98 11.76L121.98 11.76Q121.04 10.86 121.04 9.41L121.04 9.41L121.04 4.14Q121.04 3.81 120.94 3.72L120.94 3.72Q120.83 3.64 120.47 3.64L120.47 3.64ZM137.50 3.64L137.11 3.64L137.12 3.08L140.34 3.08Q141.48 3.08 142.08 3.21L142.08 3.21Q142.72 3.37 143.19 3.75L143.19 3.75Q144.19 4.57 144.19 5.71L144.19 5.71Q144.19 6.43 143.72 7.04L143.72 7.04Q143.23 7.66 142.19 7.92L142.19 7.92L144.88 11.49Q145.19 11.87 145.48 11.87L145.48 11.87L146.08 11.87L146.11 12.41L144.08 12.41L141.09 8.10L140.92 8.10Q140.88 8.10 140.82 8.11Q140.77 8.11 140.75 8.11L140.75 8.11Q139.87 8.11 139.47 8.03L139.47 8.03L139.47 11.46Q139.47 11.76 139.62 11.81L139.62 11.81Q139.74 11.87 140.44 11.87L140.44 11.87L141.16 11.87L141.13 12.41L137.40 12.41L137.40 11.87L137.72 11.87Q138.19 11.87 138.26 11.81L138.26 11.81Q138.34 11.74 138.34 11.46L138.34 11.46L138.34 4.14Q138.34 3.82 138.15 3.73L138.15 3.73Q137.92 3.64 137.50 3.64L137.50 3.64ZM139.47 4.28L139.47 7.57Q139.66 7.70 140.37 7.71L140.37 7.71Q141.64 7.71 142.22 7.27L142.22 7.27Q142.81 6.84 142.81 5.92L142.81 5.92Q142.81 4.92 142.04 4.27L142.04 4.27Q141.28 3.64 139.90 3.64L139.90 3.64Q139.64 3.64 139.56 3.75L139.56 3.75Q139.48 3.84 139.47 4.28L139.47 4.28ZM167.16 12.41L163.43 12.41L163.43 11.87L163.87 11.87Q164.25 11.87 164.30 11.81L164.30 11.81Q164.37 11.74 164.38 11.46L164.38 11.46L164.38 4.14Q164.38 3.81 164.29 3.72Q164.21 3.64 163.84 3.64L163.84 3.64L163.47 3.64L163.49 3.08L166.37 3.08Q167.52 3.08 168.17 3.19L168.17 3.19Q168.77 3.28 169.24 3.68L169.24 3.68Q170.43 4.64 170.43 6.19L170.43 6.19Q170.43 7.23 169.67 7.98L169.67 7.98Q168.89 8.74 167.48 8.73L167.48 8.73Q167.31 8.73 166.89 8.70L166.89 8.70Q166.78 8.69 166.36 8.62L166.36 8.62Q166.02 8.55 165.93 8.54L165.93 8.54Q165.63 8.47 165.62 8.46L165.62 8.46L165.50 8.44L165.50 11.46Q165.50 11.74 165.63 11.81L165.63 11.81Q165.74 11.87 166.46 11.87L166.46 11.87L167.16 11.87L167.16 12.41ZM165.50 4.28L165.50 8.02Q165.85 8.29 166.82 8.29L166.82 8.29Q167.96 8.29 168.53 7.75L168.53 7.75Q169.12 7.21 169.12 6.16L169.12 6.16Q169.12 4.98 168.21 4.31L168.21 4.31Q167.32 3.64 165.93 3.64L165.93 3.64Q165.68 3.64 165.59 3.75L165.59 3.75Q165.51 3.84 165.50 4.28L165.50 4.28ZM178.90 3.64L178.41 3.64L178.42 3.08L182.01 3.08L182.01 3.64L181.38 3.64Q181.00 3.64 180.89 3.72Q180.78 3.80 180.78 4.16L180.78 4.16L180.78 11.22Q180.78 11.57 180.86 11.67Q180.95 11.77 181.24 11.77L181.24 11.77Q184.11 11.74 184.77 11.63L184.77 11.63Q184.98 11.61 185.06 11.39Q185.14 11.17 185.34 10.05L185.34 10.05L185.83 10.08L185.37 12.41L178.61 12.41L178.60 11.87L178.99 11.87Q179.49 11.87 179.56 11.80L179.56 11.80Q179.64 11.72 179.65 11.33L179.65 11.33L179.65 4.09Q179.65 3.80 179.49 3.72L179.49 3.72Q179.34 3.64 178.90 3.64L178.90 3.64ZM193.58 12.41L193.57 11.87L193.74 11.87Q194.13 11.87 194.26 11.73L194.26 11.73Q194.38 11.57 194.71 10.83L194.71 10.83L195.62 8.82L196.20 7.53Q196.46 6.97 196.51 6.86L196.51 6.86Q196.57 6.70 196.63 6.60Q196.68 6.51 196.69 6.45L196.69 6.45L196.79 6.21L198.21 2.74L198.51 2.74Q199.36 4.98 201.55 10.25L201.55 10.25Q202.00 11.34 202.19 11.64L202.19 11.64Q202.33 11.87 202.77 11.87L202.77 11.87L202.98 11.87L202.97 12.41L199.77 12.41L199.79 11.87L200.20 11.87Q200.82 11.87 200.82 11.70L200.82 11.70Q200.82 11.63 200.68 11.27L200.68 11.27L199.64 8.72L196.40 8.72L195.29 11.18Q195.15 11.50 195.15 11.63L195.15 11.63Q195.15 11.79 195.25 11.83Q195.34 11.87 195.73 11.87L195.73 11.87L196.30 11.87L196.30 12.41L193.58 12.41ZM198.08 4.79L196.66 8.10L199.40 8.10L198.08 4.79ZM211.09 8.02L211.09 8.02Q211.09 6.86 211.57 5.83L211.57 5.83Q212.03 4.85 212.78 4.27L212.78 4.27Q213.53 3.69 214.42 3.37Q215.32 3.05 216.16 3.05L216.16 3.05Q217.03 3.05 217.70 3.16L217.70 3.16Q218.33 3.26 218.62 3.37L218.62 3.37Q218.93 3.48 218.96 3.48L218.96 3.48Q219.13 3.48 219.15 3.41L219.15 3.41Q219.18 3.33 219.18 3.09L219.18 3.09L219.18 2.97L219.71 2.97Q219.75 4.30 219.88 5.64L219.88 5.64L219.38 5.65Q219.35 5.40 219.34 5.26L219.34 5.26Q219.34 5.20 219.33 5.13Q219.32 5.07 219.32 5.02Q219.31 4.98 219.31 4.95L219.31 4.95Q219.28 4.84 219.28 4.74L219.28 4.74Q219.28 4.68 219.24 4.59L219.24 4.59Q219.24 4.57 219.21 4.55Q219.18 4.52 219.18 4.50L219.18 4.50Q219.15 4.44 219.08 4.41L219.08 4.41Q219.04 4.38 219.02 4.37Q218.99 4.36 218.96 4.35L218.96 4.35Q218.95 4.35 218.92 4.33Q218.90 4.31 218.86 4.29Q218.82 4.27 218.78 4.25L218.78 4.25Q218.55 4.16 218.52 4.14L218.52 4.14Q218.18 3.96 217.53 3.83L217.53 3.83Q216.86 3.71 216.20 3.71L216.20 3.71Q214.48 3.71 213.38 4.84L213.38 4.84Q212.28 5.99 212.28 7.62L212.28 7.62Q212.28 9.35 213.50 10.69L213.50 10.69Q214.70 12.02 216.52 12.02L216.52 12.02Q217.53 12.02 218.47 11.49L218.47 11.49Q219.42 10.94 219.45 10.58L219.45 10.58L219.49 9.41L219.98 9.41L219.90 11.45Q219.83 11.49 219.70 11.57L219.70 11.57Q219.65 11.60 219.18 11.85L219.18 11.85Q218.80 12.05 218.36 12.23L218.36 12.23Q218.00 12.39 217.35 12.51L217.35 12.51Q216.74 12.63 216.17 12.64L216.17 12.64Q213.79 12.64 212.43 11.39L212.43 11.39Q211.09 10.14 211.09 8.02ZM228.03 3.64L228.01 3.08L235.22 3.08Q235.24 4.14 235.29 5.28L235.29 5.28L234.75 5.30Q234.73 4.66 234.68 4.25L234.68 4.25Q234.64 3.89 234.58 3.80L234.58 3.80Q234.53 3.71 234.41 3.69L234.41 3.69Q234.32 3.68 233.73 3.68L233.73 3.68L231.35 3.68Q230.80 3.68 230.66 3.77L230.66 3.77Q230.54 3.86 230.54 4.33L230.54 4.33L230.54 6.28Q230.54 6.69 230.59 6.76L230.59 6.76Q230.66 6.84 231 6.84L231 6.84L233.11 6.84Q233.47 6.84 233.56 6.73L233.56 6.73Q233.64 6.63 233.65 6.14L233.65 6.14L233.65 5.61L234.16 5.63L234.16 8.97L233.65 8.97L233.65 8.24Q233.65 7.66 233.57 7.57L233.57 7.57Q233.49 7.46 233.14 7.46L233.14 7.46L231.04 7.46Q230.71 7.46 230.62 7.54Q230.54 7.63 230.54 7.89L230.54 7.89L230.54 11.20Q230.54 11.57 230.62 11.67Q230.71 11.77 230.98 11.77L230.98 11.77Q233.90 11.75 234.42 11.69L234.42 11.69Q234.94 11.63 235.03 11.38L235.03 11.38L235.03 11.36L235.04 11.35L235.27 10.17L235.74 10.25L235.40 12.41L228.29 12.41L228.29 11.87L228.66 11.87Q229.22 11.87 229.30 11.80L229.30 11.80Q229.40 11.72 229.40 11.33L229.40 11.33L229.40 4.24Q229.40 3.82 229.25 3.73L229.25 3.73Q229.08 3.64 228.42 3.64L228.42 3.64L228.03 3.64Z"/></g></svg>